<?xml version="1.0" encoding="UTF-8" standalone="no"?>
<!-- Created with Inkscape (http://www.inkscape.org/) -->

<svg
   width="21.166666mm"
   height="21.166666mm"
   viewBox="0 0 21.166666 21.166666"
   version="1.1"
   id="svg24865"
   xmlns="http://www.w3.org/2000/svg"
   xmlns:svg="http://www.w3.org/2000/svg">
  <defs
     id="defs24862" />
  <g
     id="layer1"
     transform="translate(-61.57928,-61.753978)">
    <circle
       style="fill:#ec6c2a;fill-opacity:1;stroke:none;stroke-width:0.333683;stroke-linecap:butt;stroke-linejoin:round;stroke-miterlimit:4;stroke-dasharray:none"
       id="path22216"
       cx="72.162613"
       cy="72.337311"
       r="10.583333" />
    <path
       id="text13898"
       style="font-style:normal;font-weight:normal;font-size:122.667px;line-height:1.25;font-family:sans-serif;fill:#f9f9f9;fill-opacity:1;stroke:none;stroke-width:0.141111"
       d="m 76.048679,65.261081 c -0.253875,0 -0.467416,0.0807 -0.640513,0.24226 -0.161556,0.161557 -0.242258,0.375097 -0.242258,0.640512 v 5.237923 c -0.392352,-0.48467 -0.877117,-0.865439 -1.454106,-1.142394 -0.576989,-0.288494 -1.205962,-0.432704 -1.886809,-0.432704 -0.842406,0 -1.598118,0.213541 -2.267425,0.640512 -0.669308,0.415432 -1.200109,0.986722 -1.592461,1.713729 -0.380812,0.715466 -0.571335,1.528863 -0.571335,2.440506 0,0.799751 0.160119,1.528462 0.479833,2.18612 l 1.44005,-0.90868 c -0.148947,-0.393409 -0.223517,-0.819271 -0.223517,-1.27744 0,-0.623148 0.132838,-1.176969 0.398252,-1.661639 0.276955,-0.484671 0.646076,-0.865438 1.107667,-1.142394 0.473132,-0.288495 0.998109,-0.432703 1.575098,-0.432703 0.588529,0 1.113782,0.144208 1.575373,0.432703 0.330029,0.198017 0.608931,0.450138 0.838674,0.754339 l 2.346249,-1.48084 v -4.927038 c 0,-0.265415 -0.0807,-0.478955 -0.24226,-0.640512 -0.161556,-0.161557 -0.375097,-0.24226 -0.640512,-0.24226 z m 0.882772,7.235527 -1.816531,1.146528 c 0.07917,0.299033 0.120165,0.61795 0.120165,0.958289 0,0.611608 -0.132838,1.165703 -0.398252,1.661913 -0.265416,0.496212 -0.628714,0.888351 -1.090305,1.176846 -0.461591,0.276954 -0.986844,0.415616 -1.575373,0.415616 -0.576989,0 -1.101966,-0.138662 -1.575098,-0.415616 -0.240905,-0.150566 -0.455962,-0.330017 -0.646575,-0.537161 L 68.5403,77.79241 c 0.338513,0.393313 0.734962,0.726211 1.19035,0.997974 0.727006,0.415433 1.540402,0.62315 2.440505,0.62315 0.900104,0 1.707951,-0.207717 2.423418,-0.62315 0.715467,-0.426971 1.280934,-1.003809 1.696365,-1.730815 0.426972,-0.727006 0.640513,-1.546502 0.640513,-2.458144 z" />
    <path
       style="color:#000000;fill:#f9f9f9;stroke-linejoin:round;-inkscape-stroke:none"
       d="m 71.414062,73.935547 a 0.12348434,0.12348434 0 0 0 -0.107421,0.01172 l -1.097657,0.689453 a 0.12348434,0.12348434 0 0 0 0.02148,0.220703 l 1.412109,0.550781 0.01367,1.578125 a 0.12348434,0.12348434 0 0 0 0.195312,0.09961 l 1.097657,-0.787109 a 0.12348434,0.12348434 0 0 0 0.05273,-0.103516 l -0.02734,-1.599609 a 0.12348434,0.12348434 0 0 0 -0.08008,-0.113281 z m -0.02734,0.253906 1.34375,0.496094 0.02344,1.449219 -0.853515,0.611328 -0.01172,-1.423828 a 0.12348434,0.12348434 0 0 0 -0.07813,-0.113282 l -1.263672,-0.49414 z"
       id="path13975" />
    <path
       style="color:#000000;fill:#f9f9f9;stroke-width:0.168804;-inkscape-stroke:none"
       d="m 72.053494,75.191932 -5.65e-4,0.351531 0.577949,-0.445408 2.82e-4,-0.351705 z"
       id="path20614" />
    <path
       style="color:#000000;fill:#f9f9f9;stroke-width:0.16022;-inkscape-stroke:none"
       d="m 72.053494,75.712213 -5.65e-4,0.285668 0.577949,-0.401262 2.82e-4,-0.285825 z"
       id="path21392" />
    <path
       style="color:#000000;fill:#f9f9f9;stroke-width:0.16022;-inkscape-stroke:none"
       d="m 72.053494,76.207873 -5.65e-4,0.315762 0.577949,-0.401263 2.82e-4,-0.315918 z"
       id="path21394" />
    <path
       style="color:#000000;fill:#f9f9f9;stroke-width:0.15517;-inkscape-stroke:none"
       d="m 72.177574,76.20025 -0.124504,0.21555 2.83e-4,-1.074046 0.124681,-0.215333 z"
       id="path21396" />
    <path
       style="color:#000000;fill:#f9f9f9;stroke-linejoin:round;-inkscape-stroke:none"
       d="m 73.126953,72.804687 a 0.12348434,0.12348434 0 0 0 -0.109375,0.01172 l -1.095703,0.689453 a 0.12348434,0.12348434 0 0 0 0.01953,0.21875 l 1.414063,0.552735 0.01172,1.578125 a 0.12348434,0.12348434 0 0 0 0.195313,0.09961 l 1.099609,-0.789062 a 0.12348434,0.12348434 0 0 0 0.05078,-0.101563 L 74.6875,73.464844 a 0.12348434,0.12348434 0 0 0 -0.08008,-0.113282 z m -0.0293,0.251954 1.34375,0.496093 0.02344,1.451172 -0.851563,0.611328 -0.01172,-1.423828 a 0.12348434,0.12348434 0 0 0 -0.07813,-0.115234 l -1.263671,-0.492188 z"
       id="path22164" />
    <path
       style="color:#000000;fill:#f9f9f9;stroke-width:0.168804;-inkscape-stroke:none"
       d="m 73.76566,74.060275 -5.65e-4,0.35153 0.577949,-0.445407 2.82e-4,-0.351706 z"
       id="path22166" />
    <path
       style="color:#000000;fill:#f9f9f9;stroke-width:0.16022;-inkscape-stroke:none"
       d="m 73.76566,74.580556 -5.65e-4,0.285668 0.577949,-0.401262 2.82e-4,-0.285825 z"
       id="path22168" />
    <path
       style="color:#000000;fill:#f9f9f9;stroke-width:0.16022;-inkscape-stroke:none"
       d="m 73.76566,75.076216 -5.65e-4,0.315761 0.577949,-0.401262 2.82e-4,-0.315918 z"
       id="path22170" />
    <path
       style="color:#000000;fill:#f9f9f9;stroke-width:0.15517;-inkscape-stroke:none"
       d="m 73.88974,75.068593 -0.124504,0.21555 2.83e-4,-1.074046 0.124681,-0.215333 z"
       id="path22172" />
  </g>
</svg>
